<svg xmlns="http://www.w3.org/2000/svg" aria-hidden="true" style="position:absolute;width:0;height:0;overflow:hidden">
  <defs>
    <symbol id="icon-twitter" viewBox="0 0 38 32">
      <path fill="#fff" d="M37.988 5.129A15.29 15.29 0 0 1 33.6 6.331a7.66 7.66 0 0 0 3.36-4.229 15.257 15.257 0 0 1-4.852 1.854 7.647 7.647 0 0 0-12.546 2.078 7.645 7.645 0 0 0-.476 4.894A21.705 21.705 0 0 1 3.334 2.942 7.64 7.64 0 0 0 2.3 6.784a7.642 7.642 0 0 0 3.399 6.362 7.638 7.638 0 0 1-3.461-.956v.098a7.642 7.642 0 0 0 6.131 7.494 7.698 7.698 0 0 1-3.452.131 7.65 7.65 0 0 0 7.139 5.305 15.336 15.336 0 0 1-9.492 3.273c-.61 0-1.219-.035-1.824-.107a21.61 21.61 0 0 0 11.713 3.433c14.059 0 21.745-11.644 21.745-21.743 0-.328-.008-.659-.023-.988a15.54 15.54 0 0 0 3.811-3.954l.003-.005z" style="fill:var(--color1, #fff)"/>
    </symbol>
    <symbol id="icon-linkedIn" viewBox="0 0 32 32">
      <path fill="#fff" d="M7.746 4.229C6.287 4.229 5.1 5.414 5.1 6.871s1.187 2.644 2.646 2.644a2.643 2.643 0 0 0 0-5.286zm-2.285 7.289v14.66h4.56l.002-14.66H5.461zm7.422-.002v14.66l4.55.002.002-7.254c0-1.862.324-3.765 2.73-3.765 2.369 0 2.369 2.246 2.369 3.886v7.131l4.555-.002v-8.039c0-3.628-.662-6.985-5.466-6.985-2.256 0-3.732 1.275-4.311 2.367h-.064v-2.003h-4.365zM29.357 30.72H3.176c-1.249 0-2.265-.995-2.265-2.217V2.215C.911.993 1.927 0 3.176 0h26.181c1.254 0 2.274.994 2.274 2.215v26.288c0 1.222-1.02 2.217-2.274 2.217z" style="fill:var(--color1, #fff)"/>
    </symbol>
    <symbol id="icon-frontendmentor" viewBox="0 0 34 32">
      <path fill="#fff" d="M17.292 1.321a1.013 1.013 0 0 0-.992 1.011v19.221a1.015 1.015 0 0 0 1.011 1.011 1.01 1.01 0 0 0 1.011-1.011V2.332a1.012 1.012 0 0 0-1.03-1.011h-.001zm15.301 5.758a1.014 1.014 0 0 0-.383.087l-8.678 3.874a1.01 1.01 0 0 0-.596.923 1.007 1.007 0 0 0 .596.923l8.678 3.886c.131.059.272.089.414.09a1.015 1.015 0 0 0 .986-.801 1.01 1.01 0 0 0-.576-1.133l-6.612-2.963 6.612-2.952a1.016 1.016 0 0 0 .512-1.335c-.082-.183-.216-.337-.386-.443s-.367-.16-.567-.155zM1.059 14.128c.141-.067.295-.1.451-.097v.001a1.006 1.006 0 0 1 .958.756A18.936 18.936 0 0 0 20.795 28.94a1.015 1.015 0 0 1 1.011 1.011 1.01 1.01 0 0 1-1.011 1.011c-9.543 0-17.886-6.443-20.284-15.667a1.018 1.018 0 0 1 .547-1.166z" style="fill:var(--color1, #fff)"/>
    </symbol>
    <symbol id="icon-git-hub" viewBox="0 0 32 32">
      <path fill="#fff" d="M15.748 1.28C7.047 1.28 0 8.327 0 17.029c0 6.969 4.508 12.855 10.768 14.941.787.138 1.083-.335 1.083-.748 0-.374-.02-1.614-.02-2.933-3.957.728-4.98-.965-5.295-1.85-.177-.453-.945-1.851-1.614-2.224-.551-.295-1.339-1.024-.02-1.043 1.24-.02 2.126 1.142 2.421 1.614 1.417 2.382 3.681 1.713 4.587 1.299.138-1.024.551-1.713 1.004-2.106-3.504-.394-7.166-1.752-7.166-7.776 0-1.713.61-3.13 1.614-4.232-.157-.394-.709-2.008.157-4.173 0 0 1.319-.413 4.331 1.614 1.26-.354 2.598-.531 3.937-.531s2.677.177 3.937.531c3.012-2.047 4.331-1.614 4.331-1.614.866 2.165.315 3.78.157 4.173 1.004 1.102 1.614 2.5 1.614 4.232 0 6.044-3.681 7.382-7.185 7.776.571.492 1.063 1.437 1.063 2.913 0 2.106-.02 3.799-.02 4.331 0 .413.295.906 1.083.748A15.778 15.778 0 0 0 31.496 17.03c0-8.701-7.047-15.749-15.748-15.749z" style="fill:var(--color1, #fff)"/>
    </symbol>
    <symbol id="icon-half-circle" viewBox="0 0 16 32">
      <path fill="none" stroke="#fff" stroke-width=".248" d="M31.876 16c0 8.768-7.108 15.876-15.876 15.876S.124 24.768.124 16 7.232.124 16 .124 31.876 7.232 31.876 16z" style="stroke:var(--color1, #fff)"/>
    </symbol>
    <symbol id="icon-oval" viewBox="0 0 131 32">
<path fill="none" stroke="#fff" style="stroke: var(--color1, #fff)" stroke-linejoin="miter" stroke-linecap="butt" stroke-miterlimit="4" stroke-width="0.2481" d="M31.876 16c0 8.768-7.108 15.876-15.876 15.876s-15.876-7.108-15.876-15.876c0-8.768 7.108-15.876 15.876-15.876s15.876 7.108 15.876 15.876z"></path>
</symbol>
  <symbol id="icon-green-rect" viewBox="0 0 1800 32">
      <path fill="#4ee1a0" d="M0 0h1800v32H0V0z" style="fill:var(--color1, #4ee1a0)"/>
    </symbol>

    <symbol id="icon-mob-between-section" viewBox="0 0 10976 32">
      <path fill="#fff" d="M0 0h10976v32H0V0z" style="fill:var(--color2, #fff)"/>
    </symbol>

  </defs>
</svg>